<?xml version="1.0" encoding="utf-8"?>
<!-- Generator: Adobe Illustrator 26.0.0, SVG Export Plug-In . SVG Version: 6.00 Build 0)  -->
<svg version="1.1" id="Layer_1" xmlns="http://www.w3.org/2000/svg" xmlns:xlink="http://www.w3.org/1999/xlink" x="0px" y="0px"
	 viewBox="0 0 1920 2035.4" style="enable-background:new 0 0 1920 2035.4;" xml:space="preserve">
<style type="text/css">
	.st0{fill:#41A8F5;}
	.st1{fill:#8AD3FE;}
	.st2{fill:#8AE6FF;}
</style>
<g>
	<path class="st0" d="M803.9,617v800.6l-290.3-112.6V617c0-16,13-29,29-29h232.2C790.9,588,803.9,601,803.9,617z"/>
	<g>
		
			<image style="overflow:visible;opacity:0.2;" width="996" height="954" xlink:href="3D53E7CF.png"  transform="matrix(1 0 0 1 421.5 538.678)">
		</image>
		<g>
			<polygon class="st1" points="1388.6,780.1 803.9,1417.6 513.6,1305.1 803.9,988.4 1174.2,584.4 			"/>
		</g>
	</g>
	<g>
		
			<image style="overflow:visible;opacity:0.2;" width="405" height="948" xlink:href="3D53E7CD.png"  transform="matrix(1 0 0 1 1093.5 548.678)">
		</image>
		<g>
			<path class="st2" d="M1175.1,1388.6V584.4l290.3,113v691.1c0,16-13,29-29,29h-232.2C1188.1,1417.6,1175.1,1404.6,1175.1,1388.6z"
				/>
		</g>
	</g>
</g>
</svg>
